<svg width="444" height="508" viewBox="0 0 444 508" fill="none" xmlns="http://www.w3.org/2000/svg">
  <g opacity="0.1">
  <path d="M31.7143 222.571C14.2021 222.571 0 208.399 0 190.857C0 173.315 14.2021 159.143 31.7143 159.143H95.1429V286C95.1429 303.542 109.315 317.714 126.857 317.714C144.399 317.714 158.571 303.542 158.571 286V159.143H412.286C429.828 159.143 444 173.315 444 190.857C444 208.399 429.828 222.571 412.286 222.571H409.213C427.647 254.385 444 295.019 444 331.986C444 369.052 432.206 400.766 412.286 426.633V484.214C412.286 497.396 401.681 508 388.5 508C375.319 508 364.714 497.396 364.714 484.214V469.348C324.675 494.621 273.734 508 222 508C170.266 508 119.325 494.621 79.2857 469.348V484.214C79.2857 497.396 68.6317 508 55.5 508C42.3683 508 31.7143 497.396 31.7143 484.214V426.633C11.8235 400.766 0 369.052 0 331.986C0 295.019 16.313 254.385 34.7965 222.571H31.7143Z" fill="black"/>
  <path opacity="0.4" d="M190.286 32.2857C190.286 49.7979 176.113 64 158.571 64C141.029 64 126.857 49.7979 126.857 32.2857C126.857 14.7735 141.029 0.571411 158.571 0.571411C176.113 0.571411 190.286 14.7735 190.286 32.2857ZM158.571 159.143V286C158.571 303.542 144.399 317.714 126.857 317.714C109.315 317.714 95.1428 303.542 95.1428 286V159.143H158.571ZM222 79.8571C222 53.5838 243.308 32.2857 269.571 32.2857C295.835 32.2857 317.143 53.5838 317.143 79.8571C317.143 106.121 295.835 127.429 269.571 127.429C243.308 127.429 222 106.121 222 79.8571Z" fill="black"/>
  </g>
  </svg>
  